<svg width="537" height="624" viewBox="0 0 537 624" fill="none" xmlns="http://www.w3.org/2000/svg">
<g clip-path="url(#clip0_3_3)">
<g clip-path="url(#clip1_3_3)">
<g clip-path="url(#clip2_3_3)">
<g clip-path="url(#clip3_3_3)">
<g clip-path="url(#clip4_3_3)">
<g clip-path="url(#clip5_3_3)">
<g clip-path="url(#clip6_3_3)">
<path d="M85.5339 122.921C86.1422 122.921 86.5679 123.286 86.8112 124.016C86.8112 124.989 86.0813 125.597 84.6216 125.841C77.8096 128.152 70.5476 132.348 62.8354 138.431C55.099 144.513 47.8004 151.836 40.9398 160.399C34.0548 168.987 28.3376 179.12 23.7882 190.798C19.2144 202.475 16.9275 214.275 16.9275 226.196C16.9275 242.374 22.6447 250.463 34.0791 250.463C40.7695 250.463 48.5911 247.507 57.544 241.596C66.4725 235.708 74.8659 228.288 82.724 219.335C90.5578 210.406 97.2116 199.921 102.686 187.878C108.159 175.836 110.896 164.243 110.896 153.101C110.896 141.982 107.065 136.423 99.4012 136.423C93.1974 136.423 85.8989 139.732 77.5055 146.349C69.1122 152.991 61.7893 161.384 55.5369 171.529C49.2601 181.699 46.1218 191.248 46.1218 200.176C46.1218 209.129 49.2236 213.606 55.4274 213.606C59.32 213.606 63.7356 211.744 68.6743 208.022C73.5886 204.324 77.9921 199.373 81.8847 193.17C82.3712 192.197 82.9551 191.71 83.6363 191.71C84.2932 191.71 84.6216 192.075 84.6216 192.805C84.6216 196.211 80.4006 201.563 71.9586 208.862C63.4923 216.16 56.2181 219.809 50.136 219.809C42.959 219.809 39.3706 214.031 39.3706 202.475C39.3706 193.474 43.1415 183.219 50.6834 171.712C58.2252 160.229 67.1051 150.534 77.3231 142.627C87.541 134.72 96.3601 130.767 103.78 130.767C113.512 130.767 118.377 138.005 118.377 152.48C118.377 163.428 115.215 175.191 108.889 187.769C102.564 200.371 94.8761 211.574 85.8259 221.379C76.7513 231.159 67.0443 239.333 56.7047 245.902C46.365 252.47 37.3027 255.755 29.5176 255.755C16.0152 255.755 9.26407 246.145 9.26407 226.925C9.26407 215.248 11.5753 203.716 16.1977 192.33C20.8201 180.969 26.4522 171.274 33.0938 163.246C39.7112 155.217 46.7056 148.04 54.0772 141.715C61.4244 135.389 67.9323 130.67 73.6008 127.556C79.245 124.466 83.2227 122.921 85.5339 122.921ZM134.982 217.255C134.982 217.377 133.607 219.53 130.858 223.714C128.133 227.923 126.004 231.122 124.472 233.312C122.963 235.501 116.614 245.719 105.422 263.966C106.396 263.844 107.977 263.783 110.167 263.783C116.005 263.783 118.925 265.304 118.925 268.345C118.925 270.048 117.83 272.055 115.64 274.366C113.451 276.677 111.748 277.833 110.531 277.833C109.315 277.833 108.707 277.407 108.707 276.556C108.707 276.069 109.376 275.315 110.714 274.293C112.052 273.247 112.721 272.031 112.721 270.644C112.721 269.233 111.529 268.527 109.145 268.527C106.785 268.527 104.51 268.71 102.321 269.075C91.2511 287.199 81.7022 301.371 73.6738 311.589C65.6454 321.807 58.7726 326.916 53.0554 326.916C48.9195 326.916 46.8516 324.787 46.8516 320.529C46.8516 313.231 52.3499 303.11 63.3463 290.167C74.3671 277.2 86.3246 268.892 99.2187 265.243L116.735 234.954C111.626 239.576 106.359 243.651 100.934 247.179C95.533 250.707 91.4336 252.47 88.6358 252.47C85.838 252.47 84.4392 251.193 84.4392 248.639C84.4392 244.746 90.8254 233.981 103.598 216.343C104.206 215.369 104.997 214.883 105.97 214.883C108.768 215.734 110.167 216.343 110.167 216.707C110.167 217.072 109.802 217.802 109.072 218.897C98.1239 233.737 92.65 242.313 92.65 244.624C92.65 246.084 93.465 246.814 95.095 246.814C96.7494 246.814 100.155 244.868 105.313 240.975C110.495 237.083 114.911 233.129 118.56 229.115L128.778 216.707C129.508 215.856 130.42 215.43 131.515 215.43C133.826 215.795 134.982 216.403 134.982 217.255ZM64.5506 293.999C61.023 298.792 58.2252 303.353 56.1573 307.684C54.0893 311.99 53.0554 315.396 53.0554 317.902C53.0554 320.383 54.0285 321.624 55.9748 321.624C62.0569 321.624 75.3768 304.594 95.9344 270.534C89.8522 272.481 83.9769 275.68 78.3084 280.132C72.6642 284.56 68.0782 289.182 64.5506 293.999ZM174.029 238.603C170.258 240.914 165.879 242.07 160.891 242.07H158.702C155.418 245.841 151.914 248.906 148.192 251.266C144.494 253.65 141.307 254.842 138.631 254.842C134.86 254.842 132.975 252.41 132.975 247.544C132.975 242.678 135.59 237.022 140.82 230.575C140.334 229.237 140.091 227.595 140.091 225.648C140.091 221.391 141.94 217.705 145.638 214.591C149.36 211.501 152.985 209.956 156.512 209.956C163.933 209.956 167.643 213.971 167.643 221.999C167.643 227.351 165.331 233.19 160.709 239.515H162.899C166.791 239.515 170.136 238.603 172.934 236.779C173.299 236.414 173.786 236.231 174.394 236.231C175.002 236.231 175.306 236.438 175.306 236.852C175.306 237.289 174.88 237.873 174.029 238.603ZM156.512 217.62C157.121 217.377 157.607 217.255 157.972 217.255C158.337 217.255 158.519 217.522 158.519 218.058C158.519 218.617 157.85 219.384 156.512 220.357C151.647 224.128 147.997 227.534 145.565 230.575C148.241 234.832 152.316 237.63 157.79 238.968C162.534 233.373 164.906 228.142 164.906 223.276C164.906 220.478 163.993 218.35 162.169 216.89C160.344 215.43 157.996 214.7 155.126 214.7C152.279 214.7 149.64 215.515 147.207 217.145C144.774 218.8 143.557 220.564 143.557 222.437C143.557 224.334 143.74 225.831 144.105 226.925C147.876 223.033 152.012 219.931 156.512 217.62ZM143.01 234.589C141.064 237.873 140.091 241.523 140.091 245.537C140.091 247.726 141.064 248.821 143.01 248.821C146.294 248.821 150.369 246.388 155.235 241.523C149.761 240.549 145.686 238.238 143.01 234.589ZM364.12 136.788L357.551 136.423H355.361C353.293 142.749 348.768 148.612 341.786 154.013C334.78 159.438 327.627 162.151 320.328 162.151C316.314 162.151 314.307 160.569 314.307 157.407C314.307 152.906 318.017 147.761 325.437 141.97C332.858 136.204 341.737 132.835 352.077 131.862V131.132C352.077 124.928 346.786 121.826 336.203 121.826C319.903 121.826 305.366 131.436 292.594 150.656C286.633 159.779 281.038 169.145 275.807 178.755C259.507 209.287 246.856 230.392 237.855 242.07C241.869 242.07 244.971 242.131 247.16 242.252L277.084 243.165C284.505 243.165 288.859 243.25 290.149 243.42C291.414 243.615 292.046 243.955 292.046 244.442C292.046 247.97 289.127 249.916 283.288 250.281C267.231 249.794 250.141 249.429 232.016 249.186C211.945 272.176 188.407 283.672 161.402 283.672C157.267 283.672 153.958 282.674 151.476 280.679C148.971 278.66 147.718 276.069 147.718 272.906C147.718 269.744 149.214 266.52 152.206 263.236C155.174 259.951 159.675 256.728 165.709 253.565C171.718 250.402 180.257 247.751 191.326 245.61C202.396 243.493 215.168 242.313 229.644 242.07C239.254 229.054 249.897 211.355 261.575 188.973C265.832 180.58 270.881 171.882 276.72 162.881C282.558 153.879 288.251 146.301 293.798 140.146C299.321 134.015 305.95 128.967 313.687 125.001C321.399 121.06 329.634 119.089 338.392 119.089C350.435 119.089 356.456 123.043 356.456 130.95V131.497C359.619 131.497 362.356 131.74 364.667 132.227C365.397 132.47 365.762 133.285 365.762 134.672C365.762 136.083 365.214 136.788 364.12 136.788ZM155.381 264.878C152.583 267.432 151.184 269.902 151.184 272.286C151.184 274.646 152.34 276.556 154.651 278.015C156.962 279.475 160.186 280.205 164.322 280.205C186.704 280.205 206.593 269.865 223.987 249.186C189.076 249.551 166.207 254.782 155.381 264.878ZM319.781 156.312C319.781 158.258 320.997 159.231 323.43 159.231C327.809 159.231 332.918 156.799 338.757 151.933C344.596 147.067 348.61 142.019 350.8 136.788C341.92 137.883 334.536 140.584 328.649 144.89C322.737 149.22 319.781 153.028 319.781 156.312ZM327.444 195.724C329.269 195.724 330.181 196.636 330.181 198.461C330.181 200.286 329.33 202.135 327.627 204.008C325.924 205.906 324.038 206.854 321.971 206.854C320.268 206.854 319.416 205.662 319.416 203.278C319.416 200.918 320.389 199.069 322.335 197.731C324.282 196.393 325.985 195.724 327.444 195.724ZM310.293 219.809C310.901 218.836 311.753 218.35 312.847 218.35C313.942 218.35 315.037 218.897 316.132 219.992C316.132 220.478 315.341 221.573 313.76 223.276C312.178 224.979 309.502 228.774 305.731 234.662C301.96 240.574 300.075 244.503 300.075 246.449C300.075 247.666 300.987 248.395 302.812 248.639C305.245 248.639 309.016 247.447 314.125 245.062C319.234 242.703 323.734 240.306 327.627 237.873L333.466 234.224C333.587 234.467 333.648 234.954 333.648 235.684C333.648 236.414 333.101 237.022 332.006 237.508C315.584 248.699 304.15 254.295 297.703 254.295C294.54 254.295 292.959 252.714 292.959 249.551C292.959 246.388 294.686 241.973 298.141 236.304C301.62 230.66 305.67 225.162 310.293 219.809ZM332.189 191.163C340.46 191.163 348.61 191.102 356.639 190.98C369.654 174.315 378.534 165.983 383.278 165.983C384.981 165.983 385.833 166.895 385.833 168.72C385.833 174.558 381.575 181.857 373.06 190.615L386.928 190.433C396.172 190.068 401.829 189.885 403.897 189.885C405.965 189.885 406.999 190.129 406.999 190.615C406.999 192.926 405.417 194.143 402.255 194.264L367.951 195.724C361.991 201.32 354.632 207.219 345.873 213.423C336.628 228.628 332.006 238.968 332.006 244.442C332.006 247.24 333.794 248.639 337.37 248.639C340.971 248.639 346.664 246.692 354.449 242.8L369.229 234.224C369.35 234.467 369.411 234.954 369.411 235.684C369.411 236.414 368.864 237.022 367.769 237.508C363.876 240.185 359.619 242.861 354.996 245.537C345.143 250.524 337.602 253.018 332.371 253.018C329.938 253.018 328.053 252.531 326.715 251.558C325.377 250.585 324.647 249.612 324.525 248.639L324.16 247.179C324.16 243.043 326.958 236.073 332.553 226.269C338.149 216.489 344.779 206.49 352.442 196.272C346.603 196.515 341.068 196.636 335.838 196.636C330.607 196.636 327.992 196.028 327.992 194.812C327.992 192.501 329.391 191.284 332.189 191.163ZM380.176 172.551C380.176 171.943 379.933 171.639 379.447 171.639C376.649 171.639 370.445 178.025 360.835 190.798H369.958C376.77 183.377 380.176 177.295 380.176 172.551ZM364.85 195.907C360.957 195.907 358.342 195.967 357.004 196.089C355.909 197.67 354.388 199.982 352.442 203.023C350.496 206.064 349.158 208.132 348.428 209.226C354.753 204.604 360.227 200.164 364.85 195.907ZM374.666 233.677C367.368 233.677 363.718 232.095 363.718 228.933C363.718 225.162 368.037 220.685 376.673 215.503C385.31 210.346 393.095 207.767 400.029 207.767C403.556 207.767 405.32 208.862 405.32 211.051C405.32 212.268 404.408 213.606 402.583 215.065C400.758 216.525 398.995 217.681 397.292 218.532C395.589 219.384 394.615 219.809 394.372 219.809C393.642 219.809 393.156 219.505 392.912 218.897C392.669 218.046 393.314 217.158 394.847 216.233C396.355 215.333 397.109 214.335 397.109 213.241C397.109 212.146 395.747 211.599 393.022 211.599C390.273 211.599 385.979 213.508 380.14 217.328C374.301 221.172 371.382 224.31 371.382 226.743C371.382 228.568 373.51 229.48 377.768 229.48C378.498 229.48 379.836 229.419 381.782 229.298C383.728 229.176 384.702 229.419 384.702 230.027C384.702 230.636 381.697 232.825 375.688 236.596C369.654 240.367 366.638 243.59 366.638 246.267C366.638 249.308 368.62 250.828 372.586 250.828C376.527 250.828 380.991 249.794 385.979 247.726C394.007 244.199 401.306 240.428 407.875 236.414L411.341 234.224C411.463 234.467 411.524 234.954 411.524 235.684C411.524 236.414 410.976 237.022 409.882 237.508C403.435 241.888 396.379 246.048 388.716 249.989C381.052 253.954 374.155 255.937 368.024 255.937C361.869 255.937 358.792 253.894 358.792 249.806C358.792 245.744 364.083 240.367 374.666 233.677Z" fill="white"/>
</g>
</g>
<g clip-path="url(#clip7_3_3)">
<g clip-path="url(#clip8_3_3)">
<path d="M69.5353 451.326C69.5353 460.249 66.4773 467.137 60.3613 471.99C54.2453 476.863 46.3747 479.299 36.7496 479.299C26.1217 479.299 17.0981 477.144 9.67872 472.832V459.748C16.9979 465.262 25.9212 468.02 36.4488 468.02C42.7653 468.02 47.7283 466.616 51.3377 463.809C54.9472 461.001 56.7519 456.941 56.7519 451.627C56.7519 449.421 56.3308 447.436 55.4886 445.671C54.6263 443.927 53.2227 442.322 51.2776 440.859C49.3124 439.415 47.4576 438.212 45.713 437.249C43.9484 436.307 41.5621 435.134 38.5543 433.73C37.9527 433.429 37.0503 433.028 35.8472 432.527C31.5359 430.622 28.2573 429.068 26.0115 427.865C23.7455 426.661 21.0886 424.877 18.0406 422.511C14.9726 420.164 12.7367 417.437 11.333 414.329C9.92938 411.221 9.22754 407.612 9.22754 403.501C9.22754 394.878 12.3156 388.131 18.4918 383.258C24.6479 378.405 32.3881 375.979 41.7125 375.979C50.4354 375.979 57.8548 377.533 63.9708 380.641V393.424C57.8548 389.414 50.5356 387.409 42.0133 387.409C35.8973 387.409 31.0346 388.832 27.4252 391.68C23.8157 394.547 22.011 398.287 22.011 402.899C22.011 405.306 22.4922 407.461 23.4548 409.366C24.3972 411.271 26.0716 413.046 28.4779 414.69C30.8842 416.354 32.9396 417.608 34.644 418.45C36.3485 419.312 39.0055 420.545 42.6149 422.15C46.0238 423.654 48.6306 424.827 50.4354 425.669C52.2401 426.531 54.5762 427.885 57.4437 429.729C60.2912 431.594 62.4468 433.399 63.9106 435.144C65.3544 436.908 66.6578 439.214 67.8209 442.062C68.9639 444.929 69.5353 448.017 69.5353 451.326ZM145.514 465.012V476.291C142.205 478.096 138.496 478.998 134.385 478.998C119.346 478.998 111.826 471.328 111.826 455.988V411.622H99.6441V401.997H111.826V383.047H123.707V401.997H144.762V411.622H123.707V456.289C123.707 464.41 127.517 468.471 135.137 468.471C139.047 468.471 142.506 467.318 145.514 465.012ZM204.378 469.072C209.792 469.072 214.104 467.538 217.312 464.47C220.52 461.422 222.125 457.542 222.125 452.83V443.054H208.89C202.473 443.054 197.661 444.308 194.452 446.814C191.244 449.321 189.64 452.479 189.64 456.289C189.64 460.099 190.893 463.177 193.399 465.523C195.906 467.889 199.566 469.072 204.378 469.072ZM222.275 478.246V469.223C218.365 475.74 211.246 478.998 200.919 478.998C193.8 478.998 188.055 476.893 183.684 472.682C179.333 468.471 177.157 463.157 177.157 456.74C177.157 449.421 179.934 443.726 185.489 439.655C191.063 435.605 198.663 433.58 208.288 433.58H222.125V429.669C222.125 423.654 220.771 419.112 218.064 416.044C215.357 412.996 210.795 411.472 204.378 411.472C196.257 411.472 189.038 413.627 182.722 417.939V406.058C188.436 402.548 195.956 400.794 205.281 400.794C224.431 400.794 234.006 410.519 234.006 429.97V478.246H222.275ZM333.897 401.997L306.375 476.291C302.465 486.618 297.833 493.887 292.479 498.098C287.105 502.309 280.959 504.415 274.04 504.415C271.434 504.415 269.328 504.164 267.724 503.663V492.985C269.228 493.386 270.932 493.587 272.837 493.587C282.964 493.587 290.133 487.821 294.344 476.291L263.513 401.997H276.898L286.824 427.113L300.209 461.703C301.011 459.096 305.022 447.566 312.24 427.113L321.114 401.997H333.897ZM411.56 457.943C411.56 464.46 409.274 469.624 404.702 473.434C400.15 477.244 393.914 479.149 385.993 479.149C376.769 479.149 369.3 477.595 363.585 474.487V462.906C370.302 466.917 377.521 468.922 385.241 468.922C389.853 468.922 393.363 468.02 395.769 466.215C398.175 464.41 399.378 461.954 399.378 458.846C399.378 455.236 398.045 452.429 395.378 450.424C392.731 448.418 388.299 446.162 382.083 443.656C376.368 441.45 371.776 438.693 368.307 435.384C364.858 432.076 363.134 427.614 363.134 421.999C363.134 415.683 365.51 410.64 370.262 406.87C375.035 403.12 380.98 401.245 388.099 401.245C396.02 401.245 402.386 402.348 407.199 404.554V415.833C402.587 413.026 396.27 411.622 388.249 411.622C384.239 411.622 381.05 412.545 378.684 414.389C376.338 416.254 375.165 418.64 375.165 421.548C375.165 423.353 375.516 424.927 376.218 426.27C376.92 427.634 378.293 428.967 380.339 430.271C382.404 431.574 383.908 432.447 384.85 432.888C385.813 433.349 387.898 434.281 391.107 435.685C397.524 438.292 402.537 441.25 406.146 444.558C409.756 447.867 411.56 452.329 411.56 457.943Z" fill="white"/>
</g>
</g>
</g>
</g>
</g>
</g>
</g>
<path d="M224.509 1.52588e-05C312.236 1.52588e-05 391.5 36.2374 448.153 94.5573H434.893C380.465 41.8268 306.278 9.37024 224.509 9.37024C142.742 9.37024 68.5517 41.8268 14.1262 94.5573H0.866699C57.5168 36.2349 136.782 1.52588e-05 224.509 1.52588e-05ZM536.261 311.752C536.261 358.079 526.157 402.044 508.032 441.566V417.105C520.227 384.3 526.891 348.804 526.891 311.752C526.891 274.7 520.227 239.204 508.032 206.4V181.939C526.157 221.46 536.261 265.428 536.261 311.752ZM224.509 623.504C136.782 623.504 57.5168 587.267 0.866699 528.947H14.1262C68.5543 581.678 142.742 614.134 224.509 614.134C306.275 614.134 380.465 581.678 434.893 528.947H448.153C391.503 587.27 312.238 623.504 224.509 623.504Z" fill="white"/>
<defs>
<clipPath id="clip0_3_3">
<rect width="402.333" height="385.326" fill="white" transform="translate(9.22757 119.089)"/>
</clipPath>
<clipPath id="clip1_3_3">
<rect width="402.333" height="385.326" fill="white" transform="translate(9.22757 119.089)"/>
</clipPath>
<clipPath id="clip2_3_3">
<rect width="402.333" height="385.326" fill="white" transform="translate(9.22757 119.089)"/>
</clipPath>
<clipPath id="clip3_3_3">
<rect width="402.333" height="385.326" fill="white" transform="translate(9.22757 119.089)"/>
</clipPath>
<clipPath id="clip4_3_3">
<rect width="402.333" height="385.326" fill="white" transform="translate(9.22757 119.089)"/>
</clipPath>
<clipPath id="clip5_3_3">
<rect width="402.333" height="207.826" fill="white" transform="translate(9.22757 119.089)"/>
</clipPath>
<clipPath id="clip6_3_3">
<rect width="402.333" height="207.826" fill="white" transform="translate(9.22757 119.089)"/>
</clipPath>
<clipPath id="clip7_3_3">
<rect width="402.333" height="128.437" fill="white" transform="translate(9.22754 375.978)"/>
</clipPath>
<clipPath id="clip8_3_3">
<rect width="402.333" height="128.437" fill="white" transform="translate(9.22754 375.978)"/>
</clipPath>
</defs>
</svg>
